<?xml version="1.0" standalone="no"?>
<!DOCTYPE svg PUBLIC "-//W3C//DTD SVG 20010904//EN"
 "http://www.w3.org/TR/2001/REC-SVG-20010904/DTD/svg10.dtd">
<svg version="1.0" xmlns="http://www.w3.org/2000/svg"
 width="256.000000pt" height="256.000000pt" viewBox="0 0 256.000000 256.000000"
 preserveAspectRatio="xMidYMid meet">

<g transform="translate(0.000000,256.000000) scale(0.100000,-0.100000)"
fill="#000000" stroke="none">
<path d="M0 1280 l0 -1280 1280 0 1280 0 0 1280 0 1280 -1280 0 -1280 0 0
-1280z m1098 525 c3 -159 7 -165 97 -165 90 0 94 6 97 165 l3 130 73 3 72 3 0
-138 c0 -113 -4 -145 -19 -178 -23 -49 -64 -89 -113 -110 l-38 -15 0 -140 0
-140 -75 0 -75 0 0 140 0 140 -37 15 c-50 21 -91 61 -114 110 -15 33 -19 65
-19 178 l0 138 73 -3 72 -3 3 -130z m-537 90 c50 -36 80 -90 87 -156 l5 -49
-72 0 c-71 0 -71 0 -71 28 0 15 -7 38 -16 50 -13 19 -24 22 -79 22 -94 0 -95
-3 -95 -217 0 -206 3 -213 94 -213 69 0 86 15 86 79 0 43 -2 48 -22 47 -22 -1
-23 3 -23 64 l0 65 98 3 97 3 0 -118 c0 -104 -3 -124 -24 -170 -36 -76 -87
-107 -184 -112 -93 -4 -142 10 -194 57 -64 58 -68 75 -68 299 0 222 8 257 75
307 53 41 73 46 172 43 84 -2 95 -5 134 -32z m1494 -239 c63 -147 115 -272
115 -277 0 -5 -31 -9 -69 -9 l-69 0 -51 118 -50 117 -1 -192 0 -193 -65 0 -65
0 0 355 0 356 70 -3 71 -3 114 -269z m325 -81 l0 -355 -65 0 -65 0 -1 193 0
192 -23 -50 -23 -50 -20 55 c-48 128 -48 129 -14 208 17 39 40 91 51 116 l19
46 71 0 70 0 0 -355z m-120 -460 c0 -13 -115 -15 -974 -15 -536 0 -977 4 -980
9 -3 4 -3 11 1 15 3 3 444 6 980 6 858 0 973 -2 973 -15z m-1716 -226 c36 -28
37 -79 2 -79 -16 0 -26 7 -29 21 -4 16 -12 20 -39 17 l-33 -3 -3 -77 c-3 -77
-3 -77 24 -84 21 -5 31 -2 45 14 25 31 59 29 59 -3 0 -53 -80 -91 -136 -63
-41 19 -54 53 -54 141 0 74 2 80 29 108 37 36 94 40 135 8z m283 -3 c24 -21
28 -32 31 -94 6 -95 -10 -140 -56 -159 -46 -19 -95 -10 -122 24 -17 21 -20 40
-20 115 0 81 2 91 25 113 34 34 103 35 142 1z m203 -43 c14 -34 29 -65 33 -69
4 -4 7 25 7 64 0 70 1 72 25 72 l25 0 0 -145 0 -145 -24 0 c-29 0 -37 10 -67
84 l-24 60 -5 -70 c-5 -66 -6 -69 -30 -69 l-25 0 -3 143 -3 143 32 -3 c29 -3
35 -9 59 -65z m280 0 c14 -34 29 -65 33 -69 4 -4 7 25 7 64 0 70 1 72 25 72
l25 0 0 -145 0 -145 -24 0 c-29 0 -37 10 -67 84 l-24 60 -5 -70 c-5 -66 -6
-69 -30 -69 l-25 0 -3 143 -3 143 32 -3 c29 -3 35 -9 59 -65z m343 41 c6 -32
-4 -36 -84 -32 -62 3 -64 4 -67 31 l-3 27 74 0 c72 0 75 -1 80 -26z m251 5
c36 -28 37 -79 2 -79 -16 0 -26 7 -29 21 -4 16 -12 20 -39 17 l-33 -3 -3 -77
c-3 -77 -3 -77 24 -84 21 -5 31 -2 45 14 25 31 59 29 59 -3 0 -53 -80 -91
-136 -63 -41 19 -54 53 -54 141 0 74 2 80 29 108 37 36 94 40 135 8z m266 -9
c0 -27 -3 -30 -30 -30 l-30 0 0 -116 0 -115 -27 3 -28 3 -3 113 -3 112 -29 0
c-27 0 -30 3 -30 30 l0 30 90 0 90 0 0 -30z m-518 -85 c3 -3 3 -16 1 -30 -4
-20 -12 -24 -47 -27 -36 -3 -41 -6 -44 -30 -3 -27 -1 -28 41 -28 40 0 45 -3
50 -26 6 -32 -4 -36 -84 -32 l-64 3 -3 74 c-2 41 -1 80 2 88 4 9 26 13 74 13
38 0 71 -2 74 -5z"/>
<path d="M724 837 c-3 -8 -4 -45 -2 -83 3 -66 4 -69 29 -72 39 -5 50 17 47 95
l-3 68 -33 3 c-21 2 -34 -2 -38 -11z"/>
</g>
</svg>
